<svg width="55" height="91" viewBox="0 0 55 91" fill="none" xmlns="http://www.w3.org/2000/svg">
<path d="M47.6501 0.605011C47.3658 0.938344 46.4911 1.53359 45.7039 1.96216C44.4137 2.62882 44.0857 2.70025 42.3144 2.67645C41.2428 2.67645 39.3185 2.48597 38.072 2.24787C33.6765 1.43835 30.8337 2.17644 29.0843 4.60501C28.8 5.00977 28.7344 8.55739 28.6469 32.105C28.5595 53.0574 28.472 59.3431 28.2533 60.0336C27.7066 61.7479 26.7007 62.8907 24.7326 63.9622C19.3749 66.8431 12.0055 64.9145 10.1686 60.1526C9.70934 58.9383 9.75308 58.2479 10.4091 56.7717C11.262 54.7717 13.1207 53.3431 15.8761 52.486C17.21 52.0812 20.4465 52.0812 23.2456 52.5098L24.2734 52.6526L24.6232 51.7479C24.9513 50.9145 24.9731 49.3907 24.8638 35.9622C24.7326 22.5574 24.6888 21.0574 24.3608 20.6526C24.0109 20.2479 23.3986 20.2241 13.1207 20.2241H2.25239L1.53075 20.7479C1.13713 21.0574 0.634169 21.6764 0.41549 22.1288C0.0218679 22.9145 0 24.0812 0 48.4383C0 72.7955 0.0218679 73.9622 0.41549 74.7479C0.634169 75.2003 1.07153 75.7955 1.39954 76.0574C1.98998 76.5336 2.318 76.5336 24.0109 76.6526C44.7636 76.7717 46.0756 76.7955 46.7535 77.2003C47.5626 77.6764 48.3062 79.1764 48.328 80.2955C48.328 81.3669 47.5845 82.6764 46.6223 83.2717L45.7476 83.7955H24.2952C5.07335 83.7955 2.75535 83.8431 1.96811 84.1764C-0.743508 85.3669 -0.459225 89.3907 2.3836 90.4384C3.41139 90.7955 44.3043 90.8193 46.338 90.4384C50.1212 89.7479 53.1608 86.7479 54.1449 82.7241C54.3854 81.7717 54.451 76.4384 54.451 55.3193C54.451 27.105 54.4948 28.1288 53.3576 25.6764C52.7235 24.3669 51.0396 22.4622 49.7932 21.6764C47.6501 20.3669 46.7973 20.2241 40.9585 20.2241H35.6447V17.6288V15.0574L38.3344 14.7717C41.8333 14.3907 42.9048 14.1288 44.5667 13.2717C47.016 12.0098 48.5686 9.72406 49.2902 6.24787C49.6838 4.3193 49.7494 1.15263 49.4214 0.438347C49.0934 -0.20451 48.2843 -0.133084 47.6501 0.605011Z" fill="#A745DD"/>
</svg>
