<svg width="384" height="91" viewBox="0 0 384 91" fill="none" xmlns="http://www.w3.org/2000/svg">
<path d="M47.6501 0.605011C47.3658 0.938344 46.4911 1.53359 45.7039 1.96216C44.4137 2.62882 44.0857 2.70025 42.3144 2.67645C41.2428 2.67645 39.3185 2.48597 38.072 2.24787C33.6765 1.43835 30.8337 2.17644 29.0843 4.60501C28.8 5.00977 28.7344 8.55739 28.6469 32.105C28.5595 53.0574 28.472 59.3431 28.2533 60.0336C27.7066 61.7479 26.7007 62.8907 24.7326 63.9622C19.3749 66.8431 12.0055 64.9145 10.1686 60.1526C9.70934 58.9383 9.75308 58.2479 10.4091 56.7717C11.262 54.7717 13.1207 53.3431 15.8761 52.486C17.21 52.0812 20.4465 52.0812 23.2456 52.5098L24.2734 52.6526L24.6232 51.7479C24.9513 50.9145 24.9731 49.3907 24.8638 35.9622C24.7326 22.5574 24.6888 21.0574 24.3608 20.6526C24.0109 20.2479 23.3986 20.2241 13.1207 20.2241H2.25239L1.53075 20.7479C1.13713 21.0574 0.634169 21.6764 0.41549 22.1288C0.0218679 22.9145 0 24.0812 0 48.4383C0 72.7955 0.0218679 73.9622 0.41549 74.7479C0.634169 75.2003 1.07153 75.7955 1.39954 76.0574C1.98998 76.5336 2.318 76.5336 24.0109 76.6526C44.7636 76.7717 46.0756 76.7955 46.7535 77.2003C47.5626 77.6764 48.3062 79.1764 48.328 80.2955C48.328 81.3669 47.5845 82.6764 46.6223 83.2717L45.7476 83.7955H24.2952C5.07335 83.7955 2.75535 83.8431 1.96811 84.1764C-0.743508 85.3669 -0.459225 89.3907 2.3836 90.4384C3.41139 90.7955 44.3043 90.8193 46.338 90.4384C50.1212 89.7479 53.1608 86.7479 54.1449 82.7241C54.3854 81.7717 54.451 76.4384 54.451 55.3193C54.451 27.105 54.4948 28.1288 53.3576 25.6764C52.7235 24.3669 51.0396 22.4622 49.7932 21.6764C47.6501 20.3669 46.7973 20.2241 40.9585 20.2241H35.6447V17.6288V15.0574L38.3344 14.7717C41.8333 14.3907 42.9048 14.1288 44.5667 13.2717C47.016 12.0098 48.5686 9.72406 49.2902 6.24787C49.6838 4.3193 49.7494 1.15263 49.4214 0.438347C49.0934 -0.20451 48.2843 -0.133084 47.6501 0.605011Z" fill="#A745DD"/>
<path d="M76.3388 29.0909H83.3551L90.7656 47.1705H91.081L98.4915 29.0909H105.508V56H99.9893V38.4854H99.766L92.8022 55.8686H89.0444L82.0806 38.4197H81.8572V56H76.3388V29.0909ZM123.032 47.407V35.8182H128.63V56H123.256V52.3342H123.045C122.59 53.5167 121.832 54.4671 120.772 55.1854C119.721 55.9036 118.438 56.2628 116.922 56.2628C115.574 56.2628 114.387 55.9562 113.362 55.343C112.337 54.7299 111.535 53.8583 110.957 52.7283C110.388 51.5984 110.099 50.245 110.09 48.6683V35.8182H115.687V47.6697C115.696 48.861 116.016 49.8027 116.647 50.4947C117.277 51.1867 118.123 51.5327 119.182 51.5327C119.857 51.5327 120.488 51.3794 121.074 51.0728C121.661 50.7575 122.134 50.2932 122.494 49.68C122.861 49.0669 123.041 48.3092 123.032 47.407ZM149.899 41.5732L144.774 41.8885C144.687 41.4505 144.498 41.0563 144.209 40.706C143.92 40.3468 143.539 40.0621 143.066 39.8519C142.602 39.6329 142.046 39.5234 141.398 39.5234C140.53 39.5234 139.799 39.7074 139.203 40.0753C138.608 40.4344 138.31 40.9162 138.31 41.5206C138.31 42.0024 138.503 42.4097 138.888 42.7425C139.273 43.0754 139.935 43.3426 140.872 43.544L144.525 44.2798C146.487 44.6828 147.95 45.331 148.913 46.2244C149.877 47.1179 150.358 48.2917 150.358 49.7457C150.358 51.0684 149.969 52.229 149.189 53.2276C148.418 54.2262 147.358 55.0058 146.009 55.5664C144.669 56.1183 143.123 56.3942 141.371 56.3942C138.7 56.3942 136.571 55.8379 134.986 54.7255C133.409 53.6043 132.485 52.0801 132.213 50.1531L137.719 49.864C137.885 50.6786 138.288 51.3005 138.927 51.7298C139.567 52.1502 140.386 52.3604 141.384 52.3604C142.365 52.3604 143.154 52.1721 143.749 51.7955C144.354 51.41 144.66 50.9151 144.669 50.3107C144.66 49.8027 144.446 49.3866 144.025 49.0625C143.605 48.7296 142.957 48.4756 142.081 48.3004L138.586 47.604C136.615 47.2099 135.148 46.5266 134.184 45.5543C133.229 44.582 132.752 43.3426 132.752 41.8359C132.752 40.5395 133.102 39.4227 133.803 38.4854C134.513 37.5482 135.507 36.8255 136.786 36.3175C138.073 35.8094 139.58 35.5554 141.306 35.5554C143.855 35.5554 145.861 36.0941 147.323 37.1715C148.795 38.2489 149.653 39.7161 149.899 41.5732ZM153.883 56V35.8182H159.48V56H153.883ZM156.695 33.2166C155.863 33.2166 155.149 32.9407 154.553 32.3888C153.966 31.8282 153.673 31.1581 153.673 30.3785C153.673 29.6077 153.966 28.9464 154.553 28.3945C155.149 27.8339 155.863 27.5536 156.695 27.5536C157.527 27.5536 158.237 27.8339 158.823 28.3945C159.419 28.9464 159.717 29.6077 159.717 30.3785C159.717 31.1581 159.419 31.8282 158.823 32.3888C158.237 32.9407 157.527 33.2166 156.695 33.2166ZM173.083 56.3942C171.016 56.3942 169.237 55.9562 167.748 55.0803C166.268 54.1955 165.129 52.9692 164.332 51.4013C163.544 49.8333 163.15 48.0289 163.15 45.9879C163.15 43.9207 163.548 42.1075 164.345 40.5483C165.151 38.9803 166.294 37.7584 167.775 36.8825C169.255 35.9978 171.016 35.5554 173.056 35.5554C174.817 35.5554 176.359 35.8751 177.681 36.5146C179.004 37.154 180.051 38.0518 180.822 39.2081C181.593 40.3643 182.017 41.7221 182.096 43.2812H176.814C176.665 42.2739 176.271 41.4637 175.632 40.8505C175.001 40.2286 174.173 39.9176 173.148 39.9176C172.281 39.9176 171.524 40.1541 170.875 40.6271C170.236 41.0914 169.737 41.7702 169.377 42.6637C169.018 43.5572 168.839 44.639 168.839 45.9091C168.839 47.1967 169.014 48.2917 169.364 49.1939C169.723 50.0961 170.227 50.7837 170.875 51.2567C171.524 51.7298 172.281 51.9663 173.148 51.9663C173.788 51.9663 174.362 51.8349 174.87 51.5721C175.386 51.3093 175.811 50.9283 176.144 50.429C176.486 49.9209 176.709 49.3121 176.814 48.6026H182.096C182.009 50.1443 181.588 51.502 180.835 52.6758C180.09 53.8408 179.061 54.7518 177.747 55.4087C176.433 56.0657 174.878 56.3942 173.083 56.3942ZM194.349 56V29.0909H200.038V51.3093H211.574V56H194.349ZM224.434 56.3942C222.358 56.3942 220.571 55.9737 219.073 55.1328C217.584 54.2831 216.437 53.0831 215.631 51.5327C214.825 49.9735 214.422 48.1296 214.422 46.0011C214.422 43.9251 214.825 42.1031 215.631 40.5352C216.437 38.9672 217.571 37.7453 219.034 36.8693C220.505 35.9934 222.231 35.5554 224.211 35.5554C225.542 35.5554 226.782 35.77 227.929 36.1992C229.085 36.6197 230.093 37.2547 230.951 38.1044C231.818 38.9541 232.493 40.0227 232.975 41.3104C233.456 42.5893 233.697 44.0871 233.697 45.804V47.3413H216.656V43.8725H228.428C228.428 43.0666 228.253 42.3527 227.903 41.7308C227.552 41.1089 227.066 40.6228 226.444 40.2724C225.831 39.9132 225.117 39.7337 224.303 39.7337C223.453 39.7337 222.7 39.9308 222.043 40.3249C221.395 40.7103 220.886 41.2315 220.519 41.8885C220.151 42.5367 219.962 43.2594 219.954 44.0565V47.3544C219.954 48.353 220.138 49.2158 220.505 49.9428C220.882 50.6699 221.412 51.2305 222.095 51.6246C222.778 52.0188 223.589 52.2159 224.526 52.2159C225.148 52.2159 225.717 52.1283 226.234 51.9531C226.751 51.7779 227.193 51.5152 227.561 51.1648C227.929 50.8144 228.209 50.3852 228.402 49.8771L233.579 50.2188C233.316 51.4626 232.777 52.5488 231.963 53.4773C231.157 54.397 230.115 55.1153 228.836 55.6321C227.566 56.1402 226.098 56.3942 224.434 56.3942ZM243.105 56.381C241.817 56.381 240.67 56.1577 239.662 55.7109C238.655 55.2554 237.858 54.5853 237.271 53.7006C236.693 52.8072 236.404 51.6947 236.404 50.3633C236.404 49.2421 236.61 48.3004 237.021 47.5384C237.433 46.7763 237.994 46.1631 238.703 45.6989C239.413 45.2346 240.219 44.8842 241.121 44.6477C242.032 44.4112 242.987 44.2448 243.985 44.1484C245.159 44.0258 246.105 43.9119 246.823 43.8068C247.542 43.6929 248.063 43.5265 248.387 43.3075C248.711 43.0885 248.873 42.7644 248.873 42.3352V42.2564C248.873 41.4242 248.61 40.7804 248.085 40.3249C247.568 39.8694 246.832 39.6417 245.877 39.6417C244.87 39.6417 244.068 39.8651 243.473 40.3118C242.877 40.7498 242.483 41.3016 242.29 41.9673L237.113 41.5469C237.376 40.3205 237.893 39.2607 238.664 38.3672C239.435 37.465 240.429 36.773 241.646 36.2912C242.873 35.8007 244.292 35.5554 245.903 35.5554C247.025 35.5554 248.098 35.6868 249.123 35.9496C250.156 36.2124 251.072 36.6197 251.869 37.1715C252.675 37.7234 253.31 38.4329 253.774 39.3001C254.238 40.1585 254.47 41.1877 254.47 42.3878V56H249.162V53.2013H249.004C248.68 53.832 248.247 54.3883 247.704 54.87C247.16 55.343 246.508 55.7153 245.746 55.9869C244.984 56.2496 244.103 56.381 243.105 56.381ZM244.708 52.5181C245.531 52.5181 246.258 52.3561 246.889 52.032C247.52 51.6991 248.015 51.2524 248.374 50.6918C248.733 50.1312 248.912 49.4961 248.912 48.7866V46.6449C248.737 46.7588 248.496 46.8639 248.19 46.9602C247.892 47.0478 247.555 47.131 247.178 47.2099C246.801 47.2799 246.425 47.3456 246.048 47.407C245.671 47.4595 245.33 47.5077 245.023 47.5515C244.366 47.6478 243.792 47.8011 243.302 48.0114C242.811 48.2216 242.43 48.5063 242.159 48.8654C241.887 49.2158 241.752 49.6538 241.752 50.1793C241.752 50.9414 242.027 51.5239 242.579 51.9268C243.14 52.321 243.849 52.5181 244.708 52.5181ZM258.813 56V35.8182H264.239V39.3395H264.449C264.817 38.0869 265.435 37.1409 266.302 36.5014C267.169 35.8532 268.168 35.5291 269.298 35.5291C269.578 35.5291 269.88 35.5466 270.204 35.5817C270.529 35.6167 270.813 35.6649 271.059 35.7262V40.6928C270.796 40.614 270.432 40.5439 269.968 40.4826C269.504 40.4213 269.079 40.3906 268.693 40.3906C267.87 40.3906 267.134 40.5702 266.486 40.9293C265.847 41.2797 265.339 41.7702 264.962 42.4009C264.594 43.0316 264.41 43.7586 264.41 44.582V56H258.813ZM279.55 44.3324V56H273.952V35.8182H279.287V39.3789H279.523C279.97 38.2051 280.719 37.2766 281.77 36.5934C282.821 35.9014 284.096 35.5554 285.594 35.5554C286.995 35.5554 288.217 35.862 289.26 36.4751C290.302 37.0883 291.112 37.9643 291.69 39.103C292.268 40.233 292.558 41.5819 292.558 43.1499V56H286.96V44.1484C286.969 42.9134 286.654 41.9498 286.014 41.2578C285.375 40.5571 284.494 40.2067 283.373 40.2067C282.62 40.2067 281.954 40.3687 281.376 40.6928C280.807 41.0169 280.36 41.4899 280.036 42.1119C279.721 42.725 279.558 43.4652 279.55 44.3324ZM313.761 41.5732L308.637 41.8885C308.549 41.4505 308.361 41.0563 308.072 40.706C307.783 40.3468 307.402 40.0621 306.929 39.8519C306.464 39.6329 305.908 39.5234 305.26 39.5234C304.393 39.5234 303.661 39.7074 303.066 40.0753C302.47 40.4344 302.172 40.9162 302.172 41.5206C302.172 42.0024 302.365 42.4097 302.75 42.7425C303.136 43.0754 303.797 43.3426 304.734 43.544L308.387 44.2798C310.349 44.6828 311.812 45.331 312.775 46.2244C313.739 47.1179 314.221 48.2917 314.221 49.7457C314.221 51.0684 313.831 52.229 313.051 53.2276C312.281 54.2262 311.221 55.0058 309.872 55.5664C308.532 56.1183 306.985 56.3942 305.234 56.3942C302.562 56.3942 300.433 55.8379 298.848 54.7255C297.271 53.6043 296.347 52.0801 296.076 50.1531L301.581 49.864C301.747 50.6786 302.15 51.3005 302.79 51.7298C303.429 52.1502 304.248 52.3604 305.247 52.3604C306.228 52.3604 307.016 52.1721 307.612 51.7955C308.216 51.41 308.523 50.9151 308.532 50.3107C308.523 49.8027 308.308 49.3866 307.888 49.0625C307.467 48.7296 306.819 48.4756 305.943 48.3004L302.448 47.604C300.477 47.2099 299.01 46.5266 298.046 45.5543C297.092 44.582 296.614 43.3426 296.614 41.8359C296.614 40.5395 296.965 39.4227 297.665 38.4854C298.375 37.5482 299.369 36.8255 300.648 36.3175C301.936 35.8094 303.442 35.5554 305.168 35.5554C307.717 35.5554 309.723 36.0941 311.186 37.1715C312.657 38.2489 313.516 39.7161 313.761 41.5732Z" fill="#A745DD"/>
<path d="M75.2642 86V71.4545H78.3395V83.4645H84.5753V86H75.2642ZM91.5266 86.2131C90.4045 86.2131 89.4386 85.9858 88.6289 85.5312C87.824 85.072 87.2037 84.4233 86.7681 83.5852C86.3325 82.7424 86.1147 81.7457 86.1147 80.5952C86.1147 79.473 86.3325 78.4882 86.7681 77.6406C87.2037 76.7931 87.8169 76.1326 88.6076 75.6591C89.4031 75.1856 90.3358 74.9489 91.4059 74.9489C92.1256 74.9489 92.7956 75.0649 93.4158 75.2969C94.0408 75.5241 94.5853 75.8674 95.0494 76.3267C95.5181 76.786 95.8827 77.3636 96.1431 78.0597C96.4035 78.7509 96.5337 79.5606 96.5337 80.4886V81.3196H87.3221V79.4446H93.6857C93.6857 79.009 93.591 78.6231 93.4016 78.2869C93.2122 77.9508 92.9495 77.688 92.6133 77.4986C92.2818 77.3045 91.896 77.2074 91.4556 77.2074C90.9963 77.2074 90.5891 77.3139 90.234 77.527C89.8836 77.7353 89.609 78.017 89.4102 78.3722C89.2113 78.7225 89.1095 79.1132 89.1048 79.544V81.3267C89.1048 81.8665 89.2042 82.3329 89.4031 82.7259C89.6067 83.1188 89.8931 83.4219 90.2624 83.6349C90.6317 83.848 91.0697 83.9545 91.5763 83.9545C91.9125 83.9545 92.2203 83.9072 92.4996 83.8125C92.779 83.7178 93.0181 83.5758 93.217 83.3864C93.4158 83.197 93.5674 82.965 93.6715 82.6903L96.4698 82.875C96.3278 83.5473 96.0366 84.1345 95.5962 84.6364C95.1606 85.1335 94.5972 85.5218 93.9059 85.8011C93.2193 86.0758 92.4263 86.2131 91.5266 86.2131ZM101.619 86.206C100.923 86.206 100.303 86.0852 99.7582 85.8438C99.2137 85.5975 98.7828 85.2353 98.4656 84.7571C98.1531 84.2741 97.9968 83.6728 97.9968 82.9531C97.9968 82.3471 98.1081 81.8381 98.3306 81.4261C98.5531 81.0142 98.8562 80.6828 99.2397 80.4318C99.6232 80.1809 100.059 79.9915 100.547 79.8636C101.039 79.7358 101.555 79.6458 102.095 79.5938C102.729 79.5275 103.241 79.4659 103.629 79.4091C104.017 79.3475 104.299 79.2576 104.474 79.1392C104.649 79.0208 104.737 78.8456 104.737 78.6136V78.571C104.737 78.1212 104.595 77.7732 104.311 77.527C104.031 77.2808 103.634 77.1577 103.118 77.1577C102.573 77.1577 102.14 77.2784 101.818 77.5199C101.496 77.7566 101.283 78.0549 101.179 78.4148L98.3803 78.1875C98.5224 77.5246 98.8017 76.9517 99.2184 76.4688C99.6351 75.9811 100.172 75.607 100.831 75.3466C101.493 75.0814 102.261 74.9489 103.132 74.9489C103.738 74.9489 104.318 75.0199 104.872 75.1619C105.431 75.304 105.925 75.5241 106.356 75.8224C106.792 76.1207 107.135 76.5043 107.386 76.973C107.637 77.437 107.762 77.9934 107.762 78.642V86H104.893V84.4872H104.808C104.633 84.8281 104.398 85.1288 104.105 85.3892C103.811 85.6449 103.458 85.8461 103.047 85.9929C102.635 86.1349 102.159 86.206 101.619 86.206ZM102.485 84.1179C102.931 84.1179 103.324 84.0303 103.664 83.8551C104.005 83.6752 104.273 83.4337 104.467 83.1307C104.661 82.8277 104.758 82.4844 104.758 82.1009V80.9432C104.663 81.0047 104.533 81.0616 104.368 81.1136C104.207 81.161 104.024 81.206 103.821 81.2486C103.617 81.2865 103.413 81.322 103.21 81.3551C103.006 81.3835 102.822 81.4096 102.656 81.4332C102.301 81.4853 101.991 81.5682 101.725 81.6818C101.46 81.7955 101.254 81.9493 101.108 82.1435C100.961 82.3329 100.887 82.5696 100.887 82.8537C100.887 83.2656 101.037 83.5805 101.335 83.7983C101.638 84.0114 102.021 84.1179 102.485 84.1179ZM110.11 86V75.0909H113.043V76.9943H113.157C113.355 76.3172 113.689 75.8059 114.158 75.4602C114.627 75.1098 115.167 74.9347 115.777 74.9347C115.929 74.9347 116.092 74.9441 116.267 74.9631C116.443 74.982 116.596 75.008 116.729 75.0412V77.7259C116.587 77.6832 116.391 77.6454 116.14 77.6122C115.889 77.5791 115.659 77.5625 115.451 77.5625C115.006 77.5625 114.608 77.6596 114.257 77.8537C113.912 78.0431 113.637 78.3082 113.434 78.6491C113.235 78.9901 113.135 79.383 113.135 79.8281V86H110.11ZM121.319 79.6932V86H118.293V75.0909H121.177V77.0156H121.305C121.546 76.3812 121.951 75.8793 122.519 75.5099C123.087 75.1359 123.776 74.9489 124.586 74.9489C125.344 74.9489 126.004 75.1146 126.567 75.446C127.131 75.7775 127.569 76.2509 127.881 76.8665C128.194 77.4773 128.35 78.2064 128.35 79.054V86H125.325V79.5938C125.329 78.9261 125.159 78.4053 124.813 78.0312C124.468 77.6525 123.992 77.4631 123.386 77.4631C122.978 77.4631 122.619 77.5507 122.306 77.7259C121.998 77.901 121.757 78.1567 121.582 78.4929C121.411 78.8243 121.324 79.2244 121.319 79.6932ZM138.389 71.4545V86H135.364V71.4545H138.389ZM143.924 86.206C143.228 86.206 142.607 86.0852 142.063 85.8438C141.518 85.5975 141.087 85.2353 140.77 84.7571C140.458 84.2741 140.301 83.6728 140.301 82.9531C140.301 82.3471 140.413 81.8381 140.635 81.4261C140.858 81.0142 141.161 80.6828 141.544 80.4318C141.928 80.1809 142.364 79.9915 142.851 79.8636C143.344 79.7358 143.86 79.6458 144.4 79.5938C145.034 79.5275 145.545 79.4659 145.934 79.4091C146.322 79.3475 146.604 79.2576 146.779 79.1392C146.954 79.0208 147.042 78.8456 147.042 78.6136V78.571C147.042 78.1212 146.9 77.7732 146.615 77.527C146.336 77.2808 145.938 77.1577 145.422 77.1577C144.878 77.1577 144.444 77.2784 144.123 77.5199C143.801 77.7566 143.587 78.0549 143.483 78.4148L140.685 78.1875C140.827 77.5246 141.106 76.9517 141.523 76.4688C141.94 75.9811 142.477 75.607 143.135 75.3466C143.798 75.0814 144.565 74.9489 145.436 74.9489C146.042 74.9489 146.623 75.0199 147.176 75.1619C147.735 75.304 148.23 75.5241 148.661 75.8224C149.096 76.1207 149.44 76.5043 149.691 76.973C149.942 77.437 150.067 77.9934 150.067 78.642V86H147.198V84.4872H147.113C146.937 84.8281 146.703 85.1288 146.409 85.3892C146.116 85.6449 145.763 85.8461 145.351 85.9929C144.939 86.1349 144.463 86.206 143.924 86.206ZM144.79 84.1179C145.235 84.1179 145.628 84.0303 145.969 83.8551C146.31 83.6752 146.578 83.4337 146.772 83.1307C146.966 82.8277 147.063 82.4844 147.063 82.1009V80.9432C146.968 81.0047 146.838 81.0616 146.672 81.1136C146.511 81.161 146.329 81.206 146.125 81.2486C145.922 81.2865 145.718 81.322 145.515 81.3551C145.311 81.3835 145.126 81.4096 144.961 81.4332C144.605 81.4853 144.295 81.5682 144.03 81.6818C143.765 81.7955 143.559 81.9493 143.412 82.1435C143.266 82.3329 143.192 82.5696 143.192 82.8537C143.192 83.2656 143.341 83.5805 143.64 83.7983C143.943 84.0114 144.326 84.1179 144.79 84.1179ZM155.44 79.6932V86H152.414V75.0909H155.298V77.0156H155.426C155.667 76.3812 156.072 75.8793 156.64 75.5099C157.208 75.1359 157.897 74.9489 158.707 74.9489C159.465 74.9489 160.125 75.1146 160.689 75.446C161.252 75.7775 161.69 76.2509 162.002 76.8665C162.315 77.4773 162.471 78.2064 162.471 79.054V86H159.446V79.5938C159.45 78.9261 159.28 78.4053 158.934 78.0312C158.589 77.6525 158.113 77.4631 157.507 77.4631C157.1 77.4631 156.74 77.5507 156.427 77.7259C156.119 77.901 155.878 78.1567 155.703 78.4929C155.532 78.8243 155.445 79.2244 155.44 79.6932ZM169.771 90.3182C168.79 90.3182 167.95 90.1832 167.249 89.9134C166.553 89.6482 165.999 89.286 165.587 88.8267C165.175 88.3674 164.908 87.8513 164.785 87.2784L167.583 86.902C167.668 87.1198 167.803 87.3234 167.988 87.5128C168.173 87.7022 168.416 87.8537 168.719 87.9673C169.027 88.0857 169.401 88.1449 169.842 88.1449C170.5 88.1449 171.042 87.9839 171.468 87.6619C171.899 87.3447 172.114 86.812 172.114 86.0639V84.0682H171.987C171.854 84.3712 171.655 84.6577 171.39 84.9276C171.125 85.1974 170.784 85.4176 170.367 85.5881C169.951 85.7585 169.453 85.8438 168.876 85.8438C168.057 85.8438 167.311 85.6544 166.638 85.2756C165.971 84.892 165.438 84.3073 165.04 83.5213C164.647 82.7306 164.451 81.7315 164.451 80.5241C164.451 79.2884 164.652 78.2562 165.055 77.4276C165.457 76.599 165.992 75.9787 166.66 75.5668C167.332 75.1548 168.068 74.9489 168.869 74.9489C169.479 74.9489 169.991 75.053 170.403 75.2614C170.815 75.465 171.146 75.7206 171.397 76.0284C171.653 76.3314 171.849 76.6297 171.987 76.9233H172.1V75.0909H175.104V86.1065C175.104 87.0346 174.877 87.8111 174.423 88.4361C173.968 89.0611 173.338 89.5298 172.533 89.8423C171.733 90.1596 170.812 90.3182 169.771 90.3182ZM169.835 83.571C170.322 83.571 170.734 83.4503 171.07 83.2088C171.411 82.9626 171.672 82.6122 171.852 82.1577C172.036 81.6984 172.129 81.1491 172.129 80.5099C172.129 79.8707 172.039 79.3168 171.859 78.848C171.679 78.3745 171.418 78.0076 171.077 77.7472C170.737 77.4867 170.322 77.3565 169.835 77.3565C169.337 77.3565 168.918 77.4915 168.577 77.7614C168.237 78.0265 167.978 78.3958 167.803 78.8693C167.628 79.3428 167.54 79.8897 167.54 80.5099C167.54 81.1397 167.628 81.6842 167.803 82.1435C167.983 82.598 168.241 82.9508 168.577 83.2017C168.918 83.4479 169.337 83.571 169.835 83.571ZM184.508 81.3551V75.0909H187.533V86H184.629V84.0185H184.515C184.269 84.6577 183.859 85.1714 183.286 85.5597C182.718 85.9479 182.024 86.142 181.205 86.142C180.476 86.142 179.835 85.9763 179.281 85.6449C178.727 85.3134 178.293 84.8423 177.981 84.2315C177.673 83.6207 177.517 82.8892 177.512 82.0369V75.0909H180.538V81.4972C180.542 82.1411 180.715 82.6501 181.056 83.0241C181.397 83.3982 181.854 83.5852 182.427 83.5852C182.791 83.5852 183.132 83.5024 183.45 83.3366C183.767 83.1662 184.022 82.9152 184.217 82.5838C184.415 82.2524 184.513 81.8428 184.508 81.3551ZM193.064 86.206C192.368 86.206 191.748 86.0852 191.203 85.8438C190.659 85.5975 190.228 85.2353 189.911 84.7571C189.598 84.2741 189.442 83.6728 189.442 82.9531C189.442 82.3471 189.553 81.8381 189.776 81.4261C189.998 81.0142 190.301 80.6828 190.685 80.4318C191.069 80.1809 191.504 79.9915 191.992 79.8636C192.484 79.7358 193 79.6458 193.54 79.5938C194.175 79.5275 194.686 79.4659 195.074 79.4091C195.462 79.3475 195.744 79.2576 195.919 79.1392C196.095 79.0208 196.182 78.8456 196.182 78.6136V78.571C196.182 78.1212 196.04 77.7732 195.756 77.527C195.477 77.2808 195.079 77.1577 194.563 77.1577C194.018 77.1577 193.585 77.2784 193.263 77.5199C192.941 77.7566 192.728 78.0549 192.624 78.4148L189.826 78.1875C189.968 77.5246 190.247 76.9517 190.664 76.4688C191.08 75.9811 191.618 75.607 192.276 75.3466C192.939 75.0814 193.706 74.9489 194.577 74.9489C195.183 74.9489 195.763 75.0199 196.317 75.1619C196.876 75.304 197.371 75.5241 197.801 75.8224C198.237 76.1207 198.58 76.5043 198.831 76.973C199.082 77.437 199.208 77.9934 199.208 78.642V86H196.338V84.4872H196.253C196.078 84.8281 195.844 85.1288 195.55 85.3892C195.257 85.6449 194.904 85.8461 194.492 85.9929C194.08 86.1349 193.604 86.206 193.064 86.206ZM193.931 84.1179C194.376 84.1179 194.769 84.0303 195.11 83.8551C195.451 83.6752 195.718 83.4337 195.912 83.1307C196.106 82.8277 196.203 82.4844 196.203 82.1009V80.9432C196.109 81.0047 195.979 81.0616 195.813 81.1136C195.652 81.161 195.47 81.206 195.266 81.2486C195.062 81.2865 194.859 81.322 194.655 81.3551C194.452 81.3835 194.267 81.4096 194.101 81.4332C193.746 81.4853 193.436 81.5682 193.171 81.6818C192.906 81.7955 192.7 81.9493 192.553 82.1435C192.406 82.3329 192.333 82.5696 192.333 82.8537C192.333 83.2656 192.482 83.5805 192.78 83.7983C193.083 84.0114 193.467 84.1179 193.931 84.1179ZM206.47 90.3182C205.49 90.3182 204.649 90.1832 203.949 89.9134C203.252 89.6482 202.699 89.286 202.287 88.8267C201.875 88.3674 201.607 87.8513 201.484 87.2784L204.282 86.902C204.368 87.1198 204.502 87.3234 204.687 87.5128C204.872 87.7022 205.116 87.8537 205.419 87.9673C205.726 88.0857 206.1 88.1449 206.541 88.1449C207.199 88.1449 207.741 87.9839 208.167 87.6619C208.598 87.3447 208.814 86.812 208.814 86.0639V84.0682H208.686C208.553 84.3712 208.354 84.6577 208.089 84.9276C207.824 85.1974 207.483 85.4176 207.066 85.5881C206.65 85.7585 206.153 85.8438 205.575 85.8438C204.756 85.8438 204.01 85.6544 203.338 85.2756C202.67 84.892 202.137 84.3073 201.74 83.5213C201.347 82.7306 201.15 81.7315 201.15 80.5241C201.15 79.2884 201.351 78.2562 201.754 77.4276C202.156 76.599 202.691 75.9787 203.359 75.5668C204.031 75.1548 204.768 74.9489 205.568 74.9489C206.179 74.9489 206.69 75.053 207.102 75.2614C207.514 75.465 207.845 75.7206 208.096 76.0284C208.352 76.3314 208.548 76.6297 208.686 76.9233H208.799V75.0909H211.804V86.1065C211.804 87.0346 211.576 87.8111 211.122 88.4361C210.667 89.0611 210.038 89.5298 209.233 89.8423C208.432 90.1596 207.511 90.3182 206.47 90.3182ZM206.534 83.571C207.021 83.571 207.433 83.4503 207.77 83.2088C208.11 82.9626 208.371 82.6122 208.551 82.1577C208.735 81.6984 208.828 81.1491 208.828 80.5099C208.828 79.8707 208.738 79.3168 208.558 78.848C208.378 78.3745 208.118 78.0076 207.777 77.7472C207.436 77.4867 207.021 77.3565 206.534 77.3565C206.037 77.3565 205.618 77.4915 205.277 77.7614C204.936 78.0265 204.678 78.3958 204.502 78.8693C204.327 79.3428 204.24 79.8897 204.24 80.5099C204.24 81.1397 204.327 81.6842 204.502 82.1435C204.682 82.598 204.94 82.9508 205.277 83.2017C205.618 83.4479 206.037 83.571 206.534 83.571ZM219.183 86.2131C218.061 86.2131 217.095 85.9858 216.285 85.5312C215.48 85.072 214.86 84.4233 214.424 83.5852C213.989 82.7424 213.771 81.7457 213.771 80.5952C213.771 79.473 213.989 78.4882 214.424 77.6406C214.86 76.7931 215.473 76.1326 216.264 75.6591C217.059 75.1856 217.992 74.9489 219.062 74.9489C219.782 74.9489 220.452 75.0649 221.072 75.2969C221.697 75.5241 222.242 75.8674 222.706 76.3267C223.174 76.786 223.539 77.3636 223.799 78.0597C224.06 78.7509 224.19 79.5606 224.19 80.4886V81.3196H214.978V79.4446H221.342C221.342 79.009 221.247 78.6231 221.058 78.2869C220.868 77.9508 220.606 77.688 220.27 77.4986C219.938 77.3045 219.552 77.2074 219.112 77.2074C218.653 77.2074 218.245 77.3139 217.89 77.527C217.54 77.7353 217.265 78.017 217.066 78.3722C216.868 78.7225 216.766 79.1132 216.761 79.544V81.3267C216.761 81.8665 216.86 82.3329 217.059 82.7259C217.263 83.1188 217.549 83.4219 217.919 83.6349C218.288 83.848 218.726 83.9545 219.233 83.9545C219.569 83.9545 219.877 83.9072 220.156 83.8125C220.435 83.7178 220.674 83.5758 220.873 83.3864C221.072 83.197 221.224 82.965 221.328 82.6903L224.126 82.875C223.984 83.5473 223.693 84.1345 223.252 84.6364C222.817 85.1335 222.253 85.5218 221.562 85.8011C220.876 86.0758 220.083 86.2131 219.183 86.2131ZM235.241 78.2017L232.471 78.3722C232.424 78.1354 232.322 77.9223 232.166 77.733C232.01 77.5388 231.804 77.3849 231.548 77.2713C231.297 77.1529 230.996 77.0938 230.646 77.0938C230.177 77.0938 229.782 77.1932 229.46 77.392C229.138 77.5862 228.977 77.8466 228.977 78.1733C228.977 78.4337 229.081 78.6539 229.289 78.8338C229.498 79.0137 229.855 79.1581 230.362 79.267L232.336 79.6648C233.397 79.8826 234.188 80.233 234.708 80.7159C235.229 81.1989 235.49 81.8333 235.49 82.6193C235.49 83.3343 235.279 83.9616 234.858 84.5014C234.441 85.0412 233.868 85.4626 233.139 85.7656C232.414 86.0639 231.579 86.2131 230.632 86.2131C229.188 86.2131 228.037 85.9124 227.18 85.3111C226.328 84.705 225.828 83.8812 225.681 82.8395L228.657 82.6832C228.747 83.1236 228.965 83.4598 229.311 83.6918C229.656 83.919 230.099 84.0327 230.639 84.0327C231.169 84.0327 231.595 83.9309 231.917 83.7273C232.244 83.5189 232.41 83.2514 232.414 82.9247C232.41 82.6501 232.294 82.4252 232.066 82.25C231.839 82.0701 231.489 81.9328 231.015 81.8381L229.126 81.4616C228.061 81.2486 227.268 80.8793 226.747 80.3537C226.231 79.8281 225.973 79.1581 225.973 78.3438C225.973 77.643 226.162 77.0393 226.541 76.5327C226.924 76.026 227.462 75.6354 228.153 75.3608C228.849 75.0862 229.663 74.9489 230.596 74.9489C231.974 74.9489 233.058 75.2401 233.849 75.8224C234.645 76.4048 235.109 77.1979 235.241 78.2017ZM247.826 75.0909V77.3636H241.257V75.0909H247.826ZM242.748 72.4773H245.774V82.6477C245.774 82.9271 245.816 83.1449 245.902 83.3011C245.987 83.4527 246.105 83.5592 246.257 83.6207C246.413 83.6823 246.593 83.7131 246.797 83.7131C246.939 83.7131 247.081 83.7012 247.223 83.6776C247.365 83.6491 247.474 83.6278 247.549 83.6136L248.025 85.8651C247.874 85.9124 247.661 85.9669 247.386 86.0284C247.111 86.0947 246.778 86.1349 246.385 86.1491C245.655 86.1776 245.016 86.0805 244.467 85.858C243.922 85.6354 243.499 85.2898 243.196 84.821C242.893 84.3523 242.743 83.7604 242.748 83.0455V72.4773ZM253.057 79.6932V86H250.032V71.4545H252.972V77.0156H253.1C253.346 76.3717 253.744 75.8674 254.293 75.5028C254.842 75.1335 255.531 74.9489 256.36 74.9489C257.117 74.9489 257.778 75.1146 258.341 75.446C258.909 75.7727 259.35 76.2438 259.662 76.8594C259.98 77.4702 260.136 78.2017 260.131 79.054V86H257.105V79.5938C257.11 78.9214 256.94 78.3982 256.594 78.0241C256.253 77.6501 255.775 77.4631 255.159 77.4631C254.748 77.4631 254.383 77.5507 254.066 77.7259C253.753 77.901 253.507 78.1567 253.327 78.4929C253.152 78.8243 253.062 79.2244 253.057 79.6932ZM262.512 86V75.0909H265.445V76.9943H265.559C265.758 76.3172 266.092 75.8059 266.56 75.4602C267.029 75.1098 267.569 74.9347 268.18 74.9347C268.331 74.9347 268.495 74.9441 268.67 74.9631C268.845 74.982 268.999 75.008 269.131 75.0412V77.7259C268.989 77.6832 268.793 77.6454 268.542 77.6122C268.291 77.5791 268.061 77.5625 267.853 77.5625C267.408 77.5625 267.01 77.6596 266.66 77.8537C266.314 78.0431 266.04 78.3082 265.836 78.6491C265.637 78.9901 265.538 79.383 265.538 79.8281V86H262.512ZM275.117 86.2131C274.014 86.2131 273.06 85.9787 272.255 85.5099C271.454 85.0365 270.837 84.3783 270.401 83.5355C269.965 82.688 269.748 81.7055 269.748 80.5881C269.748 79.4612 269.965 78.4763 270.401 77.6335C270.837 76.786 271.454 76.1278 272.255 75.6591C273.06 75.1856 274.014 74.9489 275.117 74.9489C276.22 74.9489 277.172 75.1856 277.972 75.6591C278.777 76.1278 279.397 76.786 279.833 77.6335C280.268 78.4763 280.486 79.4612 280.486 80.5881C280.486 81.7055 280.268 82.688 279.833 83.5355C279.397 84.3783 278.777 85.0365 277.972 85.5099C277.172 85.9787 276.22 86.2131 275.117 86.2131ZM275.131 83.8693C275.633 83.8693 276.052 83.7273 276.388 83.4432C276.724 83.1544 276.978 82.7614 277.148 82.2642C277.323 81.767 277.411 81.2012 277.411 80.5668C277.411 79.9323 277.323 79.3665 277.148 78.8693C276.978 78.3722 276.724 77.9792 276.388 77.6903C276.052 77.4015 275.633 77.2571 275.131 77.2571C274.624 77.2571 274.198 77.4015 273.853 77.6903C273.512 77.9792 273.254 78.3722 273.078 78.8693C272.908 79.3665 272.823 79.9323 272.823 80.5668C272.823 81.2012 272.908 81.767 273.078 82.2642C273.254 82.7614 273.512 83.1544 273.853 83.4432C274.198 83.7273 274.624 83.8693 275.131 83.8693ZM289.449 81.3551V75.0909H292.475V86H289.57V84.0185H289.456C289.21 84.6577 288.801 85.1714 288.228 85.5597C287.659 85.9479 286.966 86.142 286.147 86.142C285.417 86.142 284.776 85.9763 284.222 85.6449C283.668 85.3134 283.235 84.8423 282.922 84.2315C282.614 83.6207 282.458 82.8892 282.453 82.0369V75.0909H285.479V81.4972C285.484 82.1411 285.657 82.6501 285.998 83.0241C286.338 83.3982 286.795 83.5852 287.368 83.5852C287.733 83.5852 288.074 83.5024 288.391 83.3366C288.708 83.1662 288.964 82.9152 289.158 82.5838C289.357 82.2524 289.454 81.8428 289.449 81.3551ZM299.81 90.3182C298.83 90.3182 297.989 90.1832 297.288 89.9134C296.592 89.6482 296.038 89.286 295.626 88.8267C295.214 88.3674 294.947 87.8513 294.824 87.2784L297.622 86.902C297.707 87.1198 297.842 87.3234 298.027 87.5128C298.212 87.7022 298.455 87.8537 298.759 87.9673C299.066 88.0857 299.44 88.1449 299.881 88.1449C300.539 88.1449 301.081 87.9839 301.507 87.6619C301.938 87.3447 302.153 86.812 302.153 86.0639V84.0682H302.026C301.893 84.3712 301.694 84.6577 301.429 84.9276C301.164 85.1974 300.823 85.4176 300.406 85.5881C299.99 85.7585 299.492 85.8438 298.915 85.8438C298.096 85.8438 297.35 85.6544 296.678 85.2756C296.01 84.892 295.477 84.3073 295.08 83.5213C294.687 82.7306 294.49 81.7315 294.49 80.5241C294.49 79.2884 294.691 78.2562 295.094 77.4276C295.496 76.599 296.031 75.9787 296.699 75.5668C297.371 75.1548 298.107 74.9489 298.908 74.9489C299.518 74.9489 300.03 75.053 300.442 75.2614C300.854 75.465 301.185 75.7206 301.436 76.0284C301.692 76.3314 301.888 76.6297 302.026 76.9233H302.139V75.0909H305.143V86.1065C305.143 87.0346 304.916 87.8111 304.462 88.4361C304.007 89.0611 303.377 89.5298 302.572 89.8423C301.772 90.1596 300.851 90.3182 299.81 90.3182ZM299.874 83.571C300.361 83.571 300.773 83.4503 301.109 83.2088C301.45 82.9626 301.711 82.6122 301.891 82.1577C302.075 81.6984 302.168 81.1491 302.168 80.5099C302.168 79.8707 302.078 79.3168 301.898 78.848C301.718 78.3745 301.457 78.0076 301.116 77.7472C300.776 77.4867 300.361 77.3565 299.874 77.3565C299.376 77.3565 298.957 77.4915 298.616 77.7614C298.276 78.0265 298.018 78.3958 297.842 78.8693C297.667 79.3428 297.58 79.8897 297.58 80.5099C297.58 81.1397 297.667 81.6842 297.842 82.1435C298.022 82.598 298.28 82.9508 298.616 83.2017C298.957 83.4479 299.376 83.571 299.874 83.571ZM310.577 79.6932V86H307.551V71.4545H310.491V77.0156H310.619C310.866 76.3717 311.263 75.8674 311.812 75.5028C312.362 75.1335 313.051 74.9489 313.879 74.9489C314.637 74.9489 315.297 75.1146 315.861 75.446C316.429 75.7727 316.869 76.2438 317.182 76.8594C317.499 77.4702 317.655 78.2017 317.651 79.054V86H314.625V79.5938C314.63 78.9214 314.459 78.3982 314.114 78.0241C313.773 77.6501 313.295 77.4631 312.679 77.4631C312.267 77.4631 311.902 77.5507 311.585 77.7259C311.273 77.901 311.027 78.1567 310.847 78.4929C310.671 78.8243 310.581 79.2244 310.577 79.6932ZM333.737 78.2017L330.967 78.3722C330.92 78.1354 330.818 77.9223 330.662 77.733C330.506 77.5388 330.3 77.3849 330.044 77.2713C329.793 77.1529 329.492 77.0938 329.142 77.0938C328.673 77.0938 328.278 77.1932 327.956 77.392C327.634 77.5862 327.473 77.8466 327.473 78.1733C327.473 78.4337 327.577 78.6539 327.786 78.8338C327.994 79.0137 328.351 79.1581 328.858 79.267L330.832 79.6648C331.893 79.8826 332.684 80.233 333.205 80.7159C333.725 81.1989 333.986 81.8333 333.986 82.6193C333.986 83.3343 333.775 83.9616 333.354 84.5014C332.937 85.0412 332.364 85.4626 331.635 85.7656C330.911 86.0639 330.075 86.2131 329.128 86.2131C327.684 86.2131 326.533 85.9124 325.676 85.3111C324.824 84.705 324.324 83.8812 324.178 82.8395L327.153 82.6832C327.243 83.1236 327.461 83.4598 327.807 83.6918C328.152 83.919 328.595 84.0327 329.135 84.0327C329.665 84.0327 330.091 83.9309 330.413 83.7273C330.74 83.5189 330.906 83.2514 330.911 82.9247C330.906 82.6501 330.79 82.4252 330.562 82.25C330.335 82.0701 329.985 81.9328 329.511 81.8381L327.622 81.4616C326.557 81.2486 325.764 80.8793 325.243 80.3537C324.727 79.8281 324.469 79.1581 324.469 78.3438C324.469 77.643 324.658 77.0393 325.037 76.5327C325.42 76.026 325.958 75.6354 326.649 75.3608C327.345 75.0862 328.16 74.9489 329.092 74.9489C330.47 74.9489 331.554 75.2401 332.345 75.8224C333.141 76.4048 333.605 77.1979 333.737 78.2017ZM340.82 86.2131C339.717 86.2131 338.763 85.9787 337.958 85.5099C337.158 85.0365 336.54 84.3783 336.104 83.5355C335.668 82.688 335.451 81.7055 335.451 80.5881C335.451 79.4612 335.668 78.4763 336.104 77.6335C336.54 76.786 337.158 76.1278 337.958 75.6591C338.763 75.1856 339.717 74.9489 340.82 74.9489C341.923 74.9489 342.875 75.1856 343.675 75.6591C344.48 76.1278 345.1 76.786 345.536 77.6335C345.971 78.4763 346.189 79.4612 346.189 80.5881C346.189 81.7055 345.971 82.688 345.536 83.5355C345.1 84.3783 344.48 85.0365 343.675 85.5099C342.875 85.9787 341.923 86.2131 340.82 86.2131ZM340.834 83.8693C341.336 83.8693 341.755 83.7273 342.091 83.4432C342.427 83.1544 342.681 82.7614 342.851 82.2642C343.026 81.767 343.114 81.2012 343.114 80.5668C343.114 79.9323 343.026 79.3665 342.851 78.8693C342.681 78.3722 342.427 77.9792 342.091 77.6903C341.755 77.4015 341.336 77.2571 340.834 77.2571C340.328 77.2571 339.901 77.4015 339.556 77.6903C339.215 77.9792 338.957 78.3722 338.782 78.8693C338.611 79.3665 338.526 79.9323 338.526 80.5668C338.526 81.2012 338.611 81.767 338.782 82.2642C338.957 82.7614 339.215 83.1544 339.556 83.4432C339.901 83.7273 340.328 83.8693 340.834 83.8693ZM351.182 79.6932V86H348.157V75.0909H351.04V77.0156H351.168C351.409 76.3812 351.814 75.8793 352.382 75.5099C352.951 75.1359 353.64 74.9489 354.449 74.9489C355.207 74.9489 355.867 75.1146 356.431 75.446C356.994 75.7775 357.432 76.2509 357.745 76.8665C358.057 77.4773 358.213 78.2064 358.213 79.054V86H355.188V79.5938C355.193 78.9261 355.022 78.4053 354.676 78.0312C354.331 77.6525 353.855 77.4631 353.249 77.4631C352.842 77.4631 352.482 77.5507 352.169 77.7259C351.862 77.901 351.62 78.1567 351.445 78.4929C351.275 78.8243 351.187 79.2244 351.182 79.6932ZM365.513 90.3182C364.533 90.3182 363.692 90.1832 362.991 89.9134C362.295 89.6482 361.741 89.286 361.33 88.8267C360.918 88.3674 360.65 87.8513 360.527 87.2784L363.325 86.902C363.411 87.1198 363.545 87.3234 363.73 87.5128C363.915 87.7022 364.159 87.8537 364.462 87.9673C364.769 88.0857 365.143 88.1449 365.584 88.1449C366.242 88.1449 366.784 87.9839 367.21 87.6619C367.641 87.3447 367.857 86.812 367.857 86.0639V84.0682H367.729C367.596 84.3712 367.397 84.6577 367.132 84.9276C366.867 85.1974 366.526 85.4176 366.109 85.5881C365.693 85.7585 365.196 85.8438 364.618 85.8438C363.799 85.8438 363.053 85.6544 362.381 85.2756C361.713 84.892 361.18 84.3073 360.783 83.5213C360.39 82.7306 360.193 81.7315 360.193 80.5241C360.193 79.2884 360.394 78.2562 360.797 77.4276C361.199 76.599 361.734 75.9787 362.402 75.5668C363.074 75.1548 363.811 74.9489 364.611 74.9489C365.222 74.9489 365.733 75.053 366.145 75.2614C366.557 75.465 366.888 75.7206 367.139 76.0284C367.395 76.3314 367.591 76.6297 367.729 76.9233H367.842V75.0909H370.847V86.1065C370.847 87.0346 370.619 87.8111 370.165 88.4361C369.71 89.0611 369.08 89.5298 368.276 89.8423C367.475 90.1596 366.554 90.3182 365.513 90.3182ZM365.577 83.571C366.064 83.571 366.476 83.4503 366.812 83.2088C367.153 82.9626 367.414 82.6122 367.594 82.1577C367.778 81.6984 367.871 81.1491 367.871 80.5099C367.871 79.8707 367.781 79.3168 367.601 78.848C367.421 78.3745 367.161 78.0076 366.82 77.7472C366.479 77.4867 366.064 77.3565 365.577 77.3565C365.08 77.3565 364.661 77.4915 364.32 77.7614C363.979 78.0265 363.721 78.3958 363.545 78.8693C363.37 79.3428 363.283 79.8897 363.283 80.5099C363.283 81.1397 363.37 81.6842 363.545 82.1435C363.725 82.598 363.983 82.9508 364.32 83.2017C364.661 83.4479 365.08 83.571 365.577 83.571ZM382.331 78.2017L379.561 78.3722C379.514 78.1354 379.412 77.9223 379.256 77.733C379.099 77.5388 378.893 77.3849 378.638 77.2713C378.387 77.1529 378.086 77.0938 377.736 77.0938C377.267 77.0938 376.872 77.1932 376.55 77.392C376.228 77.5862 376.067 77.8466 376.067 78.1733C376.067 78.4337 376.171 78.6539 376.379 78.8338C376.588 79.0137 376.945 79.1581 377.452 79.267L379.426 79.6648C380.487 79.8826 381.277 80.233 381.798 80.7159C382.319 81.1989 382.58 81.8333 382.58 82.6193C382.58 83.3343 382.369 83.9616 381.947 84.5014C381.531 85.0412 380.958 85.4626 380.229 85.7656C379.504 86.0639 378.669 86.2131 377.722 86.2131C376.277 86.2131 375.127 85.9124 374.27 85.3111C373.418 84.705 372.918 83.8812 372.771 82.8395L375.747 82.6832C375.837 83.1236 376.055 83.4598 376.401 83.6918C376.746 83.919 377.189 84.0327 377.729 84.0327C378.259 84.0327 378.685 83.9309 379.007 83.7273C379.334 83.5189 379.5 83.2514 379.504 82.9247C379.5 82.6501 379.384 82.4252 379.156 82.25C378.929 82.0701 378.579 81.9328 378.105 81.8381L376.216 81.4616C375.151 81.2486 374.357 80.8793 373.837 80.3537C373.321 79.8281 373.062 79.1581 373.062 78.3438C373.062 77.643 373.252 77.0393 373.631 76.5327C374.014 76.026 374.552 75.6354 375.243 75.3608C375.939 75.0862 376.753 74.9489 377.686 74.9489C379.064 74.9489 380.148 75.2401 380.939 75.8224C381.734 76.4048 382.198 77.1979 382.331 78.2017Z" fill="#006EFF"/>
</svg>
